<?xml version="1.0" encoding="UTF-8"?>
<svg id="Layer_2" data-name="Layer 2" xmlns="http://www.w3.org/2000/svg" viewBox="0 0 17.57 17.57">
  <defs>
    <style>
      .cls-1 {
        fill: #4f1a1c;
        stroke-width: 0px;
      }
    </style>
  </defs>
  <g id="Layer_2-2" data-name="Layer 2">
    <g>
      <path class="cls-1" d="M11.92,10.34l-2.45-1.84v-3.74c0-.38-.3-.68-.68-.68s-.68.3-.68.68v4.08c0,.21.1.42.27.54l2.72,2.04c.12.09.27.14.41.14.21,0,.41-.09.55-.27.23-.3.16-.73-.14-.95Z"/>
      <path class="cls-1" d="M8.79,0C3.94,0,0,3.94,0,8.79s3.94,8.79,8.79,8.79,8.79-3.94,8.79-8.79S13.63,0,8.79,0ZM8.79,16.21c-4.09,0-7.42-3.33-7.42-7.42S4.69,1.36,8.79,1.36s7.42,3.33,7.42,7.42-3.33,7.42-7.42,7.42Z"/>
    </g>
  </g>
</svg>