<?xml version="1.0" encoding="UTF-8"?>
<svg id="Layer_2" data-name="Layer 2" xmlns="http://www.w3.org/2000/svg" viewBox="0 0 17.42 20.59">
  <defs>
    <style>
      .cls-1 {
        fill: #4f1a1c;
        stroke-width: 0px;
      }
    </style>
  </defs>
  <g id="Layer_2-2" data-name="Layer 2">
    <g>
      <path class="cls-1" d="M14.87,2.55c-1.64-1.64-3.83-2.55-6.16-2.55S4.2.91,2.55,2.55C.91,4.2,0,6.38,0,8.71c0,4.71,4.45,8.62,6.84,10.72.33.29.62.54.85.76.29.27.65.4,1.02.4s.73-.13,1.02-.4c.23-.21.52-.47.85-.76,2.39-2.1,6.84-6.02,6.84-10.72,0-2.33-.91-4.51-2.55-6.16ZM9.78,18.52c-.34.3-.63.56-.87.78-.11.1-.28.1-.4,0-.24-.23-.53-.48-.87-.78-2.25-1.98-6.43-5.66-6.43-9.82S4.57,1.21,8.71,1.21s7.5,3.37,7.5,7.5c0,4.16-4.18,7.84-6.43,9.82Z"/>
      <path class="cls-1" d="M8.71,4.54c-2.12,0-3.84,1.72-3.84,3.84s1.72,3.84,3.84,3.84,3.84-1.72,3.84-3.84-1.72-3.84-3.84-3.84ZM8.71,11.01c-1.45,0-2.63-1.18-2.63-2.63s1.18-2.63,2.63-2.63,2.63,1.18,2.63,2.63-1.18,2.63-2.63,2.63Z"/>
    </g>
  </g>
</svg>