<?xml version="1.0" encoding="UTF-8"?>
<svg id="Layer_2" data-name="Layer 2" xmlns="http://www.w3.org/2000/svg" viewBox="0 0 16.59 16.57">
  <defs>
    <style>
      .cls-1 {
        fill: #fff7ff;
        stroke-width: 0px;
      }
    </style>
  </defs>
  <g id="Layer_2-2" data-name="Layer 2">
    <g>
      <path class="cls-1" d="M16.59,14.09c-.07.23-.24.35-.46.44-1.65.66-3.3,1.32-4.95,1.98-.2.08-.38.08-.58,0-1.57-.63-3.15-1.26-4.72-1.9-.12-.05-.22-.05-.34,0-1.57.63-3.14,1.25-4.71,1.89C.37,16.69,0,16.41,0,15.94c.01-3.03,0-6.05,0-9.08,0-.37.1-.51.44-.65,1.66-.66,3.31-1.32,4.97-1.99.18-.07.36-.09.55-.01,1,.4,2,.8,3,1.2.3.12.43.37.35.64-.09.32-.4.45-.74.32-.71-.28-1.41-.56-2.12-.85-.07-.03-.14-.05-.22-.09,0,.06,0,.12,0,.17,0,2.62,0,5.25,0,7.87,0,.13.04.18.16.23,1.28.5,2.55,1.02,3.83,1.53.05.02.1.04.16.06v-.21c0-1.71,0-3.41,0-5.12,0-.07,0-.14,0-.21.04-.25.27-.43.52-.43.26,0,.47.2.5.46,0,.06,0,.13,0,.19,0,1.7,0,3.4,0,5.1v.21c.06-.02.11-.04.16-.06,1.28-.51,2.55-1.02,3.83-1.53.12-.05.16-.1.16-.23,0-1.86,0-3.72,0-5.59,0-.09,0-.19.03-.27.06-.21.22-.33.44-.36.22-.02.39.07.5.26.02.04.05.08.07.12v6.44ZM5.19,5.43c-.07.02-.12.04-.16.06-1.28.51-2.55,1.02-3.83,1.53-.12.05-.16.11-.16.23,0,2.62,0,5.23,0,7.85,0,.06,0,.11,0,.19.07-.03.12-.05.17-.07,1.27-.51,2.54-1.02,3.81-1.52.13-.05.16-.11.16-.24,0-2.61,0-5.22,0-7.83v-.19Z"/>
      <path class="cls-1" d="M16.59,3.79c-.11.73-.41,1.38-.77,2.01-.6,1.04-1.32,1.99-2.09,2.9-.13.15-.25.3-.38.44-.23.25-.57.26-.79,0-1.03-1.19-2.01-2.41-2.72-3.83-.23-.45-.43-.92-.48-1.43-.09-.85.14-1.63.63-2.32.62-.88,1.47-1.39,2.54-1.53.04,0,.07-.02.11-.03.22,0,.43,0,.65,0,.05.01.09.02.14.03,1.42.23,2.41,1.01,2.93,2.35.11.29.16.61.23.92v.49ZM12.94,8.03c.77-.88,1.87-2.37,2.36-3.48.14-.32.27-.64.25-.99-.06-1.06-.57-1.85-1.54-2.28-.95-.42-1.86-.29-2.67.35-.76.59-1.33,1.8-.67,3.02.3.55.61,1.1.96,1.62.41.6.86,1.17,1.31,1.77Z"/>
      <path class="cls-1" d="M14.51,3.63c0,.85-.71,1.56-1.56,1.55-.84,0-1.54-.7-1.55-1.54,0-.84.7-1.56,1.55-1.56.84,0,1.56.7,1.56,1.55ZM13.48,3.62c0-.28-.24-.51-.52-.51-.29,0-.52.24-.52.53,0,.28.25.51.53.5.28,0,.51-.24.51-.52Z"/>
    </g>
  </g>
</svg>