<?xml version="1.0" encoding="UTF-8"?>
<svg id="Layer_2" data-name="Layer 2" xmlns="http://www.w3.org/2000/svg" viewBox="0 0 48.72 48.72">
  <defs>
    <style>
      .cls-1 {
        fill: #fff;
        stroke-width: 0px;
      }
    </style>
  </defs>
  <g id="Layer_2-2" data-name="Layer 2">
    <path class="cls-1" d="M46.11,21.92h-19.27s-.04-.02-.04-.04V2.61c0-1.29-.93-2.49-2.22-2.6-1.44-.13-2.66,1.01-2.66,2.43v19.45s-.02.04-.04.04H2.61c-1.29,0-2.49.93-2.6,2.22-.13,1.44,1.01,2.66,2.43,2.66h19.45s.04.02.04.04v19.27c0,1.29.93,2.49,2.22,2.6,1.44.13,2.66-1.01,2.66-2.43v-19.45s.02-.04.04-.04h19.45c1.42,0,2.55-1.21,2.43-2.66-.11-1.29-1.31-2.22-2.6-2.22Z"/>
  </g>
</svg>