<?xml version="1.0" encoding="UTF-8"?>
<svg id="Layer_2" data-name="Layer 2" xmlns="http://www.w3.org/2000/svg" viewBox="0 0 18.46 18.46">
  <defs>
    <style>
      .cls-1 {
        fill: #fff;
        stroke-width: 0px;
      }
    </style>
  </defs>
  <g id="Layer_2-2" data-name="Layer 2">
    <path class="cls-1" d="M18.3.16c-.15-.15-.38-.2-.58-.12L.34,6.99C.14,7.07,0,7.26,0,7.47c0,.21.11.41.3.51l6.85,3.32,3.32,6.85c.09.19.28.3.49.3,0,0,.01,0,.02,0,.21,0,.4-.14.48-.34L18.42.74c.08-.2.03-.43-.12-.58ZM1.88,7.54L15.67,2.02,7.45,10.24,1.88,7.54ZM10.92,16.58l-2.7-5.57L16.44,2.79l-5.52,13.79Z"/>
  </g>
</svg>