<?xml version="1.0" encoding="UTF-8"?>
<svg id="Layer_2" data-name="Layer 2" xmlns="http://www.w3.org/2000/svg" viewBox="0 0 25.83 23.94">
  <defs>
    <style>
      .cls-1 {
        fill: #fff;
        stroke-width: 0px;
      }
    </style>
  </defs>
  <g id="Layer_2-2" data-name="Layer 2">
    <g>
      <path class="cls-1" d="M25.09,11.67c-.41,0-.74.33-.74.74v6.73c0,1.83-1.49,3.32-3.32,3.32H4.8c-1.83,0-3.32-1.49-3.32-3.32v-6.84c0-.41-.33-.74-.74-.74s-.74.33-.74.74v6.84c0,2.65,2.15,4.8,4.8,4.8h16.24c2.65,0,4.8-2.15,4.8-4.8v-6.73c0-.41-.33-.74-.74-.74Z"/>
      <path class="cls-1" d="M8.73,5.97l3.44-3.44v15.02c0,.41.33.74.74.74s.74-.33.74-.74V2.53l3.44,3.44c.14.14.33.22.52.22s.38-.07.52-.22c.29-.29.29-.76,0-1.05L13.44.22c-.14-.14-.33-.22-.52-.22s-.38.08-.52.22l-4.7,4.7c-.29.29-.29.76,0,1.05.29.29.76.29,1.04,0Z"/>
    </g>
  </g>
</svg>