<?xml version="1.0" encoding="UTF-8"?>
<svg id="Layer_2" data-name="Layer 2" xmlns="http://www.w3.org/2000/svg" viewBox="0 0 30.17 30.17">
  <defs>
    <style>
      .cls-1 {
        fill: #fff;
        stroke-width: 0px;
      }
    </style>
  </defs>
  <g id="Layer_2-2" data-name="Layer 2">
    <g>
      <path class="cls-1" d="M15.39,8.9c-1.02-1.02-2.69-1.02-3.71,0-1.02-1.02-2.69-1.02-3.71,0-1.02,1.02-1.02,2.69,0,3.71l3.71,3.71,3.71-3.71c1.02-1.02,1.02-2.69,0-3.71Z"/>
      <path class="cls-1" d="M26.37,14.49h-3.35c.23-.91.34-1.86.34-2.81C23.37,5.24,18.13,0,11.68,0S0,5.24,0,11.68c0,2.31.67,4.54,1.94,6.45v4.64c0,.22.12.42.31.52.09.05.18.07.28.07.12,0,.23-.03.33-.1l2.55-1.72c1.87,1.19,4.03,1.82,6.27,1.82.96,0,1.9-.12,2.82-.34v.99c0,2.1,1.71,3.8,3.8,3.8h5.01l2.71,2.22c.11.09.24.13.37.13.09,0,.17-.02.25-.06.21-.1.34-.3.34-.53v-1.82c1.8-.3,3.18-1.87,3.18-3.75v-5.72c0-2.1-1.71-3.8-3.8-3.8h0ZM11.68,22.19c-2.13,0-4.19-.64-5.94-1.84-.2-.14-.46-.14-.66,0l-1.96,1.32v-3.71c0-.12-.04-.24-.1-.33-1.2-1.75-1.84-3.81-1.84-5.94C1.18,5.89,5.89,1.18,11.68,1.18s10.51,4.71,10.51,10.51c0,.95-.13,1.9-.38,2.81h-3.5c-2.1,0-3.8,1.71-3.8,3.8v3.51c-.91.25-1.86.38-2.82.38h0ZM29,24.02c0,1.43-1.17,2.61-2.6,2.62-.32,0-.58.27-.58.59v1.11l-1.91-1.57c-.11-.09-.24-.13-.37-.13h-5.22c-1.45,0-2.62-1.18-2.62-2.62v-5.72c0-1.45,1.18-2.62,2.62-2.62h8.07c1.45,0,2.62,1.18,2.62,2.62v5.72Z"/>
      <path class="cls-1" d="M19.21,20.57c-.15,0-.31.06-.42.17-.11.11-.17.26-.17.42s.06.31.17.42c.11.11.26.17.42.17s.31-.06.42-.17c.11-.11.17-.26.17-.42s-.06-.31-.17-.42c-.11-.11-.26-.17-.42-.17Z"/>
      <path class="cls-1" d="M22.34,20.57c-.15,0-.31.06-.42.17-.11.11-.17.26-.17.42s.06.31.17.42c.11.11.26.17.42.17s.31-.06.42-.17.17-.26.17-.42-.06-.31-.17-.42c-.11-.11-.26-.17-.42-.17Z"/>
      <path class="cls-1" d="M25.47,20.57c-.15,0-.31.06-.42.17-.11.11-.17.26-.17.42s.06.31.17.42c.11.11.26.17.42.17s.31-.06.42-.17c.11-.11.17-.26.17-.42s-.06-.31-.17-.42c-.11-.11-.26-.17-.42-.17Z"/>
    </g>
  </g>
</svg>